<svg version="1.1" id="Layer_1" xmlns="http://www.w3.org/2000/svg" xmlns:xlink="http://www.w3.org/1999/xlink" x="0px" y="0px"
	 width="100%" viewBox="0 0 1024 1024" enable-background="new 0 0 1024 1024" xml:space="preserve">
<path fill="#000000" opacity="1.000000" stroke="none" 
	d="
M535.517456,425.436890 
	C564.239685,431.288147 592.763062,433.271057 621.642334,430.228119 
	C618.493286,427.196259 614.340027,427.188782 610.533020,426.274445 
	C606.787781,425.374969 602.719360,425.800720 598.935913,423.932953 
	C600.258850,420.064819 603.324890,418.384399 605.620178,416.111572 
	C609.166809,412.599640 613.075256,409.451263 616.595032,405.914581 
	C619.609375,402.885834 622.350708,403.122925 625.273560,405.816162 
	C625.518494,406.041901 625.808044,406.241425 625.987976,406.512268 
	C634.461304,419.264282 647.544128,420.102203 661.113464,420.854156 
	C677.833191,421.780640 694.516541,423.566925 711.092896,426.118134 
	C716.825073,427.000336 722.555969,427.894562 728.299377,428.698029 
	C730.285156,428.975830 732.293457,429.021454 733.510254,431.587433 
	C729.445679,434.744446 724.822266,436.978363 720.920654,440.289703 
	C707.446594,451.725616 699.555359,465.904205 698.157104,483.669556 
	C697.831299,487.808472 697.122498,491.921021 697.316711,496.089386 
	C697.488159,499.769043 695.972168,500.760956 692.218018,500.773621 
	C670.558777,500.846588 649.002686,501.605988 628.819092,511.153137 
	C620.349792,515.159241 612.762451,520.588257 604.582458,525.045654 
	C596.987732,529.184082 589.275330,531.458008 580.398499,531.504272 
	C552.589478,531.649048 524.771423,532.770020 496.971497,531.991150 
	C475.484253,531.389099 453.983093,531.986389 432.529388,531.071106 
	C418.713562,530.481628 404.900635,530.634705 391.098938,530.045044 
	C388.480927,529.933167 385.752258,530.083191 383.296967,528.276367 
	C401.987854,481.498596 390.721283,445.864716 343.402283,423.647400 
	C347.748383,418.494629 352.764099,414.908417 357.466644,411.076477 
	C382.566986,390.622955 408.814056,371.854492 438.369263,358.239197 
	C460.809265,347.901703 484.316223,341.765076 509.138519,340.953735 
	C513.823547,340.800629 516.238403,342.246307 516.888916,347.032257 
	C518.031006,355.435089 520.266113,363.832733 513.875977,371.350006 
	C512.429626,373.051514 513.117126,375.573578 513.256897,377.684448 
	C513.558716,382.239899 512.128174,384.735168 507.070770,384.213135 
	C505.539825,384.055084 503.760315,383.733429 501.964355,385.297577 
	C510.329529,388.735474 510.132416,397.010101 510.763123,403.377380 
	C512.073608,416.607941 519.154053,422.493774 531.242065,424.366058 
	C532.550842,424.568787 533.824829,424.996033 535.517456,425.436890 
M580.760376,459.337585 
	C581.214722,455.371124 579.341187,452.560059 576.134460,450.610168 
	C571.280640,447.658752 566.024414,445.650421 560.509521,444.254639 
	C550.675232,441.765686 540.655518,440.423401 530.648132,438.860046 
	C506.488098,435.085724 482.292389,436.071411 458.041077,437.393250 
	C462.371857,439.562653 467.065979,438.350037 471.566193,438.861206 
	C490.672333,441.031281 509.856110,442.612915 528.692810,446.744812 
	C540.858521,449.413361 553.045166,451.953827 564.384216,457.428925 
	C568.728821,459.526794 570.128479,462.464386 568.630066,467.122559 
	C566.546265,473.600616 564.834778,480.197388 562.848999,486.708252 
	C559.468140,497.793243 553.983826,507.177094 542.341370,511.433350 
	C536.565979,513.544678 530.830811,515.717224 524.640625,516.456543 
	C520.246033,516.981384 515.902710,517.936035 511.536530,518.698792 
	C511.605164,519.110046 511.673767,519.521240 511.742401,519.932434 
	C524.754700,519.091003 537.864319,519.442200 550.500000,514.882690 
	C558.268616,512.079407 564.256653,507.645386 567.328247,499.787018 
	C572.409851,486.786469 576.894409,473.584564 580.760376,459.337585 
z"/>
<path fill="#000000" opacity="1.000000" stroke="none" 
	d="
M357.994080,539.027954 
	C355.884125,540.337402 353.858582,541.173157 351.775635,544.026062 
	C479.968658,541.418518 607.330444,542.058411 734.829895,544.437012 
	C730.419922,539.479370 724.986023,536.217285 720.748840,531.553284 
	C709.175781,518.814514 706.054443,503.575439 707.464722,487.067047 
	C708.741699,472.118622 714.365662,459.126801 725.447266,448.638702 
	C754.652954,420.997223 805.537964,432.772308 817.984558,471.640411 
	C826.911926,499.518463 814.111267,530.522034 790.861206,543.752991 
	C790.050842,544.214172 788.951050,544.551575 789.270569,546.584900 
	C817.262756,547.774719 845.397949,548.970581 874.059692,550.188843 
	C872.331360,554.401001 869.603638,554.100403 867.222900,554.192688 
	C849.767456,554.869385 832.313354,555.664429 814.850586,556.052856 
	C746.720032,557.568420 678.575989,557.328247 610.435120,557.347656 
	C564.293701,557.360840 518.147095,557.591980 472.013000,556.970215 
	C447.696838,556.642517 423.361145,556.810791 399.067108,555.896606 
	C384.237518,555.338501 369.424561,555.665771 354.610474,555.260254 
	C328.987610,554.558899 303.343201,554.258911 277.752960,552.924805 
	C266.290894,552.327271 254.764587,552.940918 243.352890,551.319580 
	C241.934097,551.118042 240.362411,551.490723 238.530991,548.870728 
	C259.253479,544.957581 279.499634,547.594543 300.110260,546.426941 
	C298.218506,543.517517 295.506500,542.503540 293.237335,541.101013 
	C279.931885,532.876953 272.062958,520.826904 267.669342,506.062256 
	C262.411896,488.394531 265.503754,472.112457 275.779297,457.222412 
	C295.933411,428.017670 339.318176,424.550751 364.864075,448.821228 
	C389.410583,472.142303 387.976135,516.747620 357.994080,539.027954 
M323.472260,519.741821 
	C327.674042,519.872314 331.826141,519.370789 335.632751,517.609924 
	C349.056641,511.400299 355.695404,495.943787 351.227997,481.557617 
	C347.025543,468.024841 331.874146,459.375397 318.150726,462.069641 
	C302.941833,465.055542 293.787537,478.660797 294.494080,492.363403 
	C295.315063,508.285339 307.307983,519.488647 323.472260,519.741821 
M789.954956,507.378998 
	C797.103271,496.513763 795.429626,474.893890 780.156799,466.169739 
	C766.881775,458.586761 747.688660,462.337341 739.707886,474.902130 
	C731.013550,488.590363 734.808594,507.414001 748.011047,516.086731 
	C762.628174,525.688721 779.865112,522.340637 789.954956,507.378998 
z"/>
<path fill="#000000" opacity="1.000000" stroke="none" 
	d="
M726.493408,243.656067 
	C713.773132,249.549072 701.408813,255.313568 688.980713,260.936951 
	C685.629395,262.453308 684.269714,264.902069 684.294556,268.408203 
	C684.327576,273.074036 684.304993,277.740265 684.315247,282.406311 
	C684.316711,283.072235 684.193359,283.806335 684.422485,284.393951 
	C690.105103,298.967499 689.418030,315.016479 695.366760,329.649078 
	C699.356873,339.464020 693.759155,348.102234 684.264160,349.486877 
	C676.244507,350.656372 668.037537,343.965363 667.820374,335.840057 
	C667.582825,326.953125 669.234375,318.285034 671.636841,309.776306 
	C672.937256,305.170258 673.638550,300.669586 671.576477,296.130615 
	C670.916626,294.678070 670.855347,293.231964 671.575623,291.794189 
	C675.782654,283.396576 673.313354,274.450989 673.654968,265.744812 
	C673.763123,262.988220 671.589478,261.851410 669.232483,261.021912 
	C650.713806,254.504639 632.218628,247.920883 613.699036,241.406174 
	C605.221924,238.424103 596.706482,235.550674 588.207764,232.629852 
	C587.104980,232.250839 586.018494,231.798813 584.889038,231.528290 
	C582.736938,231.012833 580.368469,230.442139 579.530884,233.368195 
	C578.801880,235.915222 580.704895,236.929581 582.691956,237.641266 
	C589.269165,239.996887 595.831055,242.399506 602.446167,244.644455 
	C622.298401,251.381668 642.171448,258.057617 662.042297,264.739868 
	C663.525635,265.238708 664.950195,265.792755 665.071045,267.600494 
	C665.210938,269.691620 663.563293,270.486206 662.030396,271.097321 
	C653.839600,274.362579 645.589844,277.480408 637.408997,280.769989 
	C621.977051,286.975342 606.530701,293.149994 591.196167,299.589355 
	C586.897400,301.394531 583.061462,301.521515 578.708557,299.836365 
	C551.558838,289.325562 524.333496,279.010345 497.149658,268.587372 
	C478.354431,261.380798 459.400574,254.619492 440.348114,248.128860 
	C439.091187,247.700668 437.864899,247.158401 436.671814,246.572525 
	C434.750854,245.629166 433.420959,244.174911 433.478516,241.909851 
	C433.539520,239.508255 434.812897,237.842911 437.010986,236.920456 
	C446.523926,232.928345 456.026642,228.911224 465.564270,224.978867 
	C483.390137,217.629288 501.236481,210.329514 519.076416,203.014084 
	C538.928894,194.873398 558.789978,186.753433 578.631287,178.585541 
	C581.797852,177.281982 584.724976,177.806549 587.818787,178.955124 
	C615.254883,189.140533 642.703308,199.293427 670.184326,209.356918 
	C689.380981,216.386688 708.634583,223.260788 727.861511,230.207916 
	C728.644714,230.490906 729.424133,230.788239 730.189575,231.115585 
	C732.662231,232.173065 735.393860,233.143677 735.497498,236.395844 
	C735.603088,239.710190 732.963196,240.722137 730.417419,241.722610 
	C729.181458,242.208344 728.020386,242.884567 726.493408,243.656067 
z"/>
<path fill="#000000" opacity="1.000000" stroke="none" 
	d="
M659.223511,286.298340 
	C658.848511,298.061676 659.757141,309.369690 658.473755,320.682251 
	C657.830933,326.348267 654.997620,329.939148 650.391357,332.409149 
	C630.749146,342.941803 609.808960,348.299652 587.479126,349.358582 
	C571.215820,350.129822 556.725159,344.768127 542.241516,338.908722 
	C526.925659,332.712646 511.352966,327.546326 494.920898,325.399506 
	C491.133698,324.904694 489.822906,322.891815 490.726013,319.636902 
	C494.101471,307.470856 497.589691,295.332947 501.276428,283.258026 
	C502.694855,278.612396 506.177063,279.800842 509.449036,281.153870 
	C520.052002,285.538361 530.563477,290.165619 541.289612,294.225281 
	C554.197266,299.110535 567.277283,303.542969 580.308105,308.098724 
	C584.078430,309.416870 587.826721,308.989624 591.517090,307.485687 
	C612.303223,299.014771 633.119873,290.618317 653.885010,282.096436 
	C657.939514,280.432495 659.526794,281.613586 659.223511,286.298340 
z"/>
<path fill="#000000" opacity="1.000000" stroke="none" 
	d="
M212.265625,357.155518 
	C194.410904,355.639618 177.098267,353.276062 159.604370,353.182587 
	C154.786652,353.156799 149.969727,352.638062 145.156708,352.286865 
	C143.712677,352.181519 142.024078,352.249542 141.922165,350.037537 
	C142.753860,348.230499 144.441559,348.776245 145.830627,348.708435 
	C164.924805,347.776459 184.024704,346.955902 203.115326,345.957642 
	C234.174072,344.333649 265.250427,343.101746 296.286530,340.956390 
	C315.525360,339.626526 334.874420,339.880280 354.110260,338.520966 
	C370.068451,337.393250 385.996552,336.582336 401.988922,336.639130 
	C406.960907,336.656769 410.897156,338.017395 412.915375,342.790375 
	C414.929932,347.554657 412.581177,351.157318 409.271271,354.294556 
	C405.039185,358.305847 400.417419,361.835541 395.542419,365.035675 
	C392.946838,366.739502 390.121826,367.454590 387.018372,367.303986 
	C365.920258,366.279724 344.829529,364.977600 323.718964,364.375305 
	C306.416992,363.881622 289.282959,361.380859 271.958038,361.022949 
	C257.357727,360.721313 242.794159,358.801941 228.204712,357.729706 
	C223.063492,357.351898 217.893723,357.362579 212.265625,357.155518 
z"/>
<path fill="#000000" opacity="1.000000" stroke="none" 
	d="
M225.801544,313.333435 
	C217.449921,312.507904 209.292801,314.588379 201.375488,311.805573 
	C202.329742,308.269623 204.611023,308.831757 206.459686,308.750671 
	C238.026260,307.365845 269.602509,306.179169 301.159546,304.606812 
	C325.576599,303.390228 349.959869,301.601105 374.385956,300.414276 
	C403.930023,298.978699 433.391785,295.959076 463.008759,295.655396 
	C468.347198,295.600708 471.528687,297.738831 473.026184,302.705475 
	C473.170105,303.182861 473.336090,303.662750 473.400909,304.153442 
	C474.315552,311.078094 462.379517,325.174438 455.362701,325.251129 
	C427.399139,325.556671 399.502594,324.317657 371.669250,321.552643 
	C362.397095,320.631561 353.065765,321.207611 343.747528,320.468628 
	C325.025665,318.983948 306.250183,318.103790 287.483582,317.273895 
	C267.053070,316.370392 246.650452,315.131348 225.801544,313.333435 
z"/>
<path fill="#000000" opacity="1.000000" stroke="none" 
	d="
M876.916504,689.593140 
	C876.207214,692.252930 874.753235,693.285461 872.425537,693.259155 
	C856.522522,693.079346 859.913452,695.463013 857.093628,681.719727 
	C855.066956,671.842163 853.527649,661.864563 851.643494,651.210693 
	C848.367249,658.422180 849.053467,665.627869 847.259460,672.345947 
	C845.850281,677.623352 845.028076,683.071106 844.181946,688.480225 
	C843.648193,691.892151 841.988892,693.235901 838.519165,693.337402 
	C826.478638,693.689575 826.445496,693.787964 824.480835,681.887634 
	C821.531311,664.021667 818.654968,646.143677 815.705994,628.277649 
	C815.138550,624.839844 814.334290,621.441589 813.738647,618.007812 
	C813.573975,617.058777 813.358887,615.569702 813.860779,615.141235 
	C817.583008,611.963867 822.118835,614.303406 826.254700,613.607605 
	C828.692505,613.197510 828.984131,615.132874 829.478882,617.066833 
	C832.625244,629.366333 832.620422,642.117981 835.004028,654.518799 
	C835.300781,656.062805 834.745667,657.845032 836.230591,659.210022 
	C838.724731,645.416992 841.337708,631.772949 843.568359,618.066589 
	C844.129395,614.619446 845.558899,613.594604 848.766724,613.660522 
	C861.097107,613.913879 859.099731,611.387817 861.216553,625.180176 
	C862.949524,636.471680 864.797974,647.745361 867.403992,659.067566 
	C868.826660,649.428040 870.250610,639.788696 871.671082,630.148865 
	C871.985046,628.018005 872.319092,625.889465 872.588745,623.752869 
	C874.075134,611.979187 873.027649,614.059509 884.308228,613.604370 
	C888.484985,613.435852 889.708130,615.316528 889.057922,619.021912 
	C886.879028,631.437073 884.609375,643.836365 882.470825,656.258423 
	C880.584229,667.216858 878.826416,678.197388 876.916504,689.593140 
z"/>
<path fill="#000000" opacity="1.000000" stroke="none" 
	d="
M273.650940,406.303528 
	C222.901154,402.160889 172.571426,398.453796 121.386406,393.097443 
	C123.801399,389.864136 126.100090,390.123260 128.123459,389.988953 
	C135.099289,389.525848 142.080475,389.070190 149.067108,388.858368 
	C164.539413,388.389160 180.021515,388.216125 195.490097,387.657867 
	C225.096939,386.589264 254.686264,385.177979 284.312469,384.466888 
	C304.265472,383.987976 324.222534,383.138184 344.185120,382.686340 
	C348.103760,382.597656 352.249634,382.661072 353.806213,387.162811 
	C355.308868,391.508575 353.027924,394.871338 349.856445,397.688843 
	C339.266937,407.096344 327.461060,412.026825 312.816193,409.726562 
	C302.673737,408.133514 292.294281,408.059967 282.024506,407.258850 
	C279.377960,407.052429 276.745728,406.662720 273.650940,406.303528 
z"/>
<path fill="#000000" opacity="1.000000" stroke="none" 
	d="
M831.209839,517.245911 
	C824.491455,517.122009 825.112488,517.276978 826.634644,511.176025 
	C830.971619,493.793182 830.311890,476.625366 822.745667,460.058777 
	C822.100525,458.646362 820.484314,457.458862 821.500916,455.441833 
	C823.824097,454.339569 825.584656,455.967010 827.406433,456.887299 
	C845.650757,466.103516 863.806763,475.497223 882.132935,484.546906 
	C887.164673,487.031616 892.659607,488.597504 897.984619,490.463226 
	C902.271606,491.965271 904.559814,494.688477 904.339294,499.399017 
	C904.183838,502.720215 904.242859,506.053986 904.282593,509.381195 
	C904.338074,514.027771 901.739990,516.231079 897.508301,517.252197 
	C893.503967,518.218384 889.562195,517.214355 885.593018,517.220886 
	C867.621582,517.250488 849.650146,517.240295 831.209839,517.245911 
z"/>
<path fill="#000000" opacity="1.000000" stroke="none" 
	d="
M748.725464,649.669067 
	C748.770447,639.324341 748.947510,629.329407 748.795532,619.339417 
	C748.730103,615.032410 750.262085,613.465698 754.641357,613.598328 
	C764.958618,613.910522 764.359497,612.610474 764.354431,623.369934 
	C764.344421,644.522949 764.370544,665.676025 764.360352,686.829041 
	C764.357361,693.038147 764.094604,692.918030 757.866272,693.383118 
	C752.349854,693.795105 749.047791,692.356628 747.042236,686.690918 
	C743.497864,676.677979 739.123291,666.958191 735.059753,657.130798 
	C734.646179,656.130737 734.676147,654.774231 732.312134,654.104248 
	C732.312134,659.578735 732.303772,664.787109 732.314331,669.995483 
	C732.326843,676.158020 732.279297,682.322083 732.408020,688.482422 
	C732.477844,691.825317 731.179626,693.185547 727.725342,693.320007 
	C717.185974,693.730286 717.416260,693.845398 717.429321,683.380737 
	C717.455017,662.766174 717.135864,642.151306 717.146484,621.536682 
	C717.147949,618.735901 715.576538,614.767456 720.294739,613.767639 
	C728.238708,612.084229 731.865234,613.508911 733.982727,618.704407 
	C738.125183,628.868286 742.361206,638.994202 746.684265,649.081970 
	C746.755676,649.248535 746.516479,653.308838 748.725464,649.669067 
z"/>
<path fill="#000000" opacity="1.000000" stroke="none" 
	d="
M372.381409,673.009766 
	C372.550659,678.312622 372.684631,683.135254 372.901825,687.954163 
	C373.068848,691.661011 371.643036,693.312439 367.667114,693.354797 
	C357.869324,693.458923 357.844238,693.616760 357.830872,683.646667 
	C357.802490,662.502380 357.774719,641.358093 357.835419,620.213989 
	C357.842438,617.760864 356.823975,614.624023 360.709473,613.749878 
	C367.300140,612.267151 371.335632,613.462585 373.085236,617.530579 
	C378.059662,629.096680 383.015900,640.670471 388.561432,653.598328 
	C390.338348,642.268677 389.558960,632.254150 389.437378,622.269226 
	C389.417175,620.608398 389.216156,618.949463 389.205536,617.289001 
	C389.188568,614.631104 390.436768,613.337769 393.225555,613.518494 
	C405.364624,614.305237 404.317108,610.521057 404.369934,623.982361 
	C404.454163,645.455200 404.571716,666.927917 404.751709,688.400085 
	C404.778961,691.651917 403.783783,693.527405 400.203705,693.306091 
	C398.378876,693.193298 396.528107,693.126648 394.713654,693.298645 
	C391.085754,693.642395 389.378174,691.815857 388.116180,688.608276 
	C383.915131,677.930969 379.479828,667.345642 375.108582,656.735718 
	C374.755310,655.878296 374.205719,655.101807 373.747345,654.287720 
	C373.292206,654.335693 372.837067,654.383728 372.381927,654.431763 
	C372.381927,660.463806 372.381927,666.495911 372.381409,673.009766 
z"/>
<path fill="#000000" opacity="1.000000" stroke="none" 
	d="
M486.664001,657.999878 
	C486.667053,644.678040 486.785278,631.854553 486.608002,619.035217 
	C486.550873,614.907349 487.981262,613.407166 492.129181,613.597351 
	C498.277649,613.879333 504.450134,613.793701 510.608490,613.670044 
	C523.258362,613.416077 530.091003,623.137085 531.248291,633.772705 
	C532.229065,642.785950 530.923523,651.389282 524.435669,658.474365 
	C522.383362,660.715576 523.470825,663.144226 524.295837,665.516418 
	C526.915039,673.047607 529.410828,680.624268 532.182373,688.098816 
	C533.600342,691.923096 532.484375,693.371582 528.543884,693.295776 
	C515.748291,693.049316 517.519165,694.989685 513.739258,682.959106 
	C512.094238,677.723206 510.360321,672.514160 508.581238,667.322205 
	C508.113495,665.957275 507.673096,664.359558 505.594696,664.601135 
	C503.211884,664.878052 503.318176,666.625549 503.315063,668.317139 
	C503.303101,674.811279 503.171875,681.308777 503.343018,687.798279 
	C503.451538,691.912659 501.745911,693.401489 497.688995,693.316284 
	C485.365692,693.057495 486.752472,694.863464 486.678162,682.478455 
	C486.630188,674.485901 486.666138,666.492798 486.664001,657.999878 
M503.294006,645.162720 
	C503.467590,646.883606 502.741241,649.133606 505.305725,649.626099 
	C507.974976,650.138672 510.614014,650.052185 512.684326,647.806335 
	C515.689819,644.545959 515.593872,632.649780 512.481812,629.385132 
	C510.429352,627.232117 507.789795,626.737305 505.135406,627.597107 
	C502.632324,628.407837 503.373047,630.876465 503.330780,632.772400 
	C503.245697,636.592529 503.298157,640.415771 503.294006,645.162720 
z"/>
<path fill="#000000" opacity="1.000000" stroke="none" 
	d="
M316.878235,692.517944 
	C309.171753,689.164307 304.783081,683.491638 303.873260,675.666565 
	C302.197510,661.254517 302.118073,646.738159 303.762573,632.346069 
	C305.247559,619.349854 312.780518,612.991638 325.313141,612.731812 
	C339.575989,612.436096 347.141541,617.840576 349.393005,631.157043 
	C351.898193,645.974487 351.926270,660.895569 349.475586,675.816101 
	C347.025574,690.732605 334.279510,695.915100 321.602142,693.710022 
	C320.133606,693.454590 318.695709,693.023071 316.878235,692.517944 
M328.022491,626.481445 
	C324.434143,626.027710 321.185272,627.319885 320.584167,630.790222 
	C318.021851,645.583191 318.467102,660.488708 320.268829,675.330627 
	C320.644073,678.421936 323.337982,679.923035 326.549500,679.924683 
	C329.553589,679.926270 331.641754,678.475586 332.643921,675.686340 
	C333.255676,673.983643 333.831085,672.188721 333.955261,670.402771 
	C334.773804,658.630859 334.938538,646.848389 333.940094,635.076416 
	C333.632629,631.451355 332.551697,628.200745 328.022491,626.481445 
z"/>
<path fill="#000000" opacity="1.000000" stroke="none" 
	d="
M668.569153,678.432190 
	C666.882996,673.536987 665.312195,669.020203 663.664062,664.281128 
	C658.554077,669.846985 658.084656,676.243530 658.225159,683.032471 
	C658.454590,694.114136 659.403564,693.079834 648.118774,693.362671 
	C643.378235,693.481445 641.610901,691.919128 641.642517,687.112061 
	C641.791382,664.463867 641.765503,641.813660 641.624329,619.165283 
	C641.598999,615.097107 642.899170,613.520203 647.085815,613.624084 
	C659.669373,613.936584 658.214966,612.012390 658.308655,624.799072 
	C658.353760,630.949646 658.316467,637.100830 658.316467,644.610657 
	C661.983765,639.865479 663.035095,635.170654 665.133850,631.062439 
	C667.097412,627.218750 668.746155,623.198914 670.306824,619.168884 
	C671.887512,615.087097 674.414734,613.497986 679.011719,613.556702 
	C692.706543,613.731812 689.659851,613.656677 685.164612,623.784973 
	C682.334412,630.161987 679.110046,636.375488 675.816284,642.530640 
	C674.090454,645.755676 674.034546,648.742981 675.321533,652.078186 
	C679.989380,664.175964 684.454285,676.352417 689.177734,688.427979 
	C690.567688,691.981567 689.770142,693.184265 685.964111,693.333313 
	C673.256226,693.831177 672.724915,693.529602 669.381897,681.208984 
	C669.163940,680.405579 668.917664,679.609863 668.569153,678.432190 
z"/>
<path fill="#000000" opacity="1.000000" stroke="none" 
	d="
M580.692322,655.443359 
	C583.079590,666.554016 585.211182,677.292969 587.638000,687.964722 
	C588.597534,692.184021 587.010498,693.548096 583.104614,693.282288 
	C582.773071,693.259705 582.438660,693.282593 582.105591,693.279785 
	C571.632080,693.191589 572.628174,694.352295 570.613586,684.103760 
	C569.874023,680.341736 568.086609,678.949402 564.166321,679.109680 
	C554.813904,679.492065 555.321777,677.971191 553.810791,687.097900 
	C552.967773,692.190002 550.622498,693.950378 545.797302,693.300354 
	C544.489258,693.124146 543.131104,693.207031 541.804932,693.299622 
	C538.001709,693.565369 536.778442,692.128967 537.650635,688.241882 
	C541.285706,672.041504 544.684021,655.788147 548.230347,639.567627 
	C549.755676,632.591125 551.510437,625.664490 553.002075,618.681274 
	C553.723145,615.305359 555.116211,613.519104 559.004333,613.637573 
	C573.200562,614.070312 570.710144,611.115295 574.257263,625.857605 
	C576.584961,635.531677 578.471069,645.311951 580.692322,655.443359 
M565.189148,655.166626 
	C564.581726,651.831238 564.464294,648.370667 562.576782,644.253113 
	C560.005554,651.225586 559.500183,657.561096 558.587463,663.951843 
	C561.300781,665.290955 563.740112,665.356995 566.402649,663.936523 
	C566.058716,661.206116 565.730225,658.598328 565.189148,655.166626 
z"/>
<path fill="#000000" opacity="1.000000" stroke="none" 
	d="
M136.689758,683.692261 
	C140.285294,666.901367 143.833817,650.528748 147.384903,634.156677 
	C148.545593,628.805420 149.736298,623.460510 150.868347,618.103210 
	C151.508484,615.073853 153.132034,613.709961 156.403656,613.600098 
	C169.510406,613.160095 169.533188,613.064087 172.296463,625.915283 
	C176.725922,646.515381 181.006851,667.148499 185.610886,687.709351 
	C186.621033,692.220459 185.189407,693.601501 181.004852,693.284058 
	C180.342270,693.233765 179.672806,693.272156 179.006531,693.272644 
	C169.932709,693.279663 169.617050,693.139404 168.821762,683.949402 
	C168.503799,680.275208 166.892059,678.890991 163.418533,679.180664 
	C162.756851,679.235901 162.086609,679.185181 161.420349,679.189331 
	C152.642685,679.243958 153.481659,678.488525 151.592194,686.723633 
	C151.072556,688.988403 151.670319,692.358459 148.472321,692.936462 
	C144.570236,693.641602 140.501984,693.743042 136.586914,692.801208 
	C135.065125,692.435120 134.995895,690.888672 135.368637,689.454407 
	C135.829163,687.682373 136.221786,685.892700 136.689758,683.692261 
M161.054733,643.829773 
	C160.903030,642.930237 160.751312,642.030640 160.420349,640.068237 
	C159.000626,647.902649 157.770538,654.689697 156.540848,661.476746 
	C155.934280,664.824707 158.205475,664.892212 160.476227,664.884399 
	C162.701340,664.876709 165.027222,664.979797 164.370865,661.522156 
	C163.296860,655.864380 162.299149,650.192078 161.054733,643.829773 
z"/>
<path fill="#000000" opacity="1.000000" stroke="none" 
	d="
M923.924072,637.215271 
	C920.319519,637.612976 919.155518,636.114990 918.704102,633.026733 
	C917.975708,628.043823 915.103821,625.688965 911.624817,626.536560 
	C908.006042,627.418152 906.641113,631.243408 908.174072,635.932617 
	C909.824829,640.982178 914.175476,643.307068 918.204834,645.895325 
	C924.721985,650.081787 930.788452,654.573669 933.755554,662.193726 
	C937.174805,670.974976 935.139648,685.798462 927.453125,690.350830 
	C917.163086,696.445129 902.520020,695.128662 895.144836,687.052307 
	C891.411072,682.963501 890.715881,677.854675 889.909485,672.766724 
	C889.618347,670.929382 890.458618,669.398987 892.374878,668.966492 
	C895.776855,668.198792 899.204224,667.508545 902.652222,666.995361 
	C904.346741,666.743103 905.487549,667.803772 905.887451,669.476013 
	C906.157898,670.606934 906.232056,671.786316 906.522522,672.910828 
	C907.377563,676.220398 908.383789,679.450134 912.545349,679.920105 
	C915.051331,680.203308 917.344421,679.610779 918.555481,677.276794 
	C920.357422,673.804443 920.405457,670.155090 918.099304,666.889221 
	C915.458801,663.149719 911.632202,660.705811 907.834961,658.260742 
	C900.713806,653.675415 894.324951,648.508911 892.377563,639.570068 
	C889.551392,626.597229 894.214600,611.800842 913.497681,612.653748 
	C925.703552,613.193604 931.427002,617.484924 933.656738,629.088379 
	C934.729919,634.672974 934.031006,635.615601 928.285889,636.447998 
	C926.969421,636.638672 925.668762,636.938049 923.924072,637.215271 
z"/>
<path fill="#000000" opacity="1.000000" stroke="none" 
	d="
M210.123062,679.913818 
	C216.863098,678.548889 219.032623,672.745911 215.286255,667.027283 
	C212.942322,663.449402 209.451508,661.147156 205.886765,658.984009 
	C202.031448,656.644470 198.337143,654.115479 195.228409,650.810242 
	C187.620438,642.721375 186.224075,629.416443 191.900604,620.380066 
	C194.162872,616.778931 197.225479,614.367859 201.350403,613.639832 
	C215.352783,611.168335 222.967133,613.425903 227.564194,620.550720 
	C230.149658,624.557739 230.375168,629.000183 230.054672,633.508728 
	C229.810501,636.943848 226.736740,636.234436 224.661850,636.656128 
	C217.661331,638.078674 217.659592,638.003784 215.398804,631.279968 
	C214.269073,627.920044 212.194962,625.620483 208.365433,626.549011 
	C204.768784,627.421082 204.090851,630.396423 204.320053,633.623230 
	C204.730743,639.405029 209.361557,641.912354 213.305222,644.875793 
	C215.424438,646.468323 217.777542,647.746338 219.994446,649.212646 
	C229.984619,655.820312 234.488861,667.270630 231.620804,678.714478 
	C229.111389,688.727295 223.868622,692.926575 212.292175,694.196106 
	C198.714569,695.685059 187.993591,686.811096 187.016449,673.303284 
	C186.867905,671.249756 187.397278,669.526123 189.535751,669.024475 
	C192.928314,668.228577 196.357330,667.430786 199.814774,667.116760 
	C202.765610,666.848694 202.955856,669.302673 203.286270,671.558777 
	C203.861145,675.484375 205.003799,679.114319 210.123062,679.913818 
z"/>
<path fill="#000000" opacity="1.000000" stroke="none" 
	d="
M582.589478,420.026489 
	C580.710876,422.732117 578.423157,423.028717 575.747070,422.776886 
	C562.198547,421.502197 548.759827,419.751648 535.467468,416.609070 
	C522.185425,413.468872 520.958069,411.547333 523.490540,396.315704 
	C525.303528,385.410736 533.646729,379.784271 543.834778,377.478638 
	C557.491882,374.387939 571.443909,378.490814 578.207520,391.188232 
	C582.925171,400.044830 584.403503,409.667908 582.589478,420.026489 
z"/>
<path fill="#000000" opacity="1.000000" stroke="none" 
	d="
M621.740723,693.201050 
	C616.044434,694.760986 610.797913,694.553040 605.597046,692.865417 
	C597.286072,690.168640 590.940735,681.444519 590.758728,671.686157 
	C590.531860,659.525085 590.366150,647.343689 590.821594,635.195312 
	C591.157654,626.231873 594.763367,618.004517 603.391296,614.544495 
	C611.692322,611.215637 620.759583,610.828735 628.529297,617.057861 
	C634.388489,621.755371 635.344666,628.584290 635.841736,635.473694 
	C635.946655,636.927551 634.949890,637.938049 633.423828,638.208801 
	C631.459534,638.557312 629.494629,638.903076 627.526306,639.227905 
	C622.968689,639.980042 620.200134,638.584656 619.844727,633.466248 
	C619.584167,629.714417 617.992188,626.272034 613.581665,626.509460 
	C609.076538,626.752014 607.459106,630.452087 607.398132,634.302734 
	C607.200439,646.798096 607.238525,659.300110 607.406494,671.796631 
	C607.458923,675.696106 609.004333,679.229736 613.459900,679.752563 
	C618.394409,680.331787 619.240967,676.331543 620.397217,672.781067 
	C621.066284,670.726624 619.990967,667.518860 623.122986,666.958374 
	C627.308167,666.209473 631.402222,667.177551 635.180664,669.127014 
	C636.127441,669.615479 636.078308,670.818604 636.149231,671.826233 
	C636.823425,681.402832 631.515747,689.490784 621.740723,693.201050 
z"/>
<path fill="#000000" opacity="1.000000" stroke="none" 
	d="
M782.043823,613.675415 
	C790.366516,613.637024 798.200623,613.776062 806.019348,613.492065 
	C810.086243,613.344299 811.472473,615.042664 811.194946,618.795471 
	C811.109253,619.954651 811.100281,621.133972 811.205688,622.290405 
	C811.589783,626.503174 809.900879,628.489380 805.489197,628.267578 
	C801.336182,628.058777 797.158813,628.364929 793.001465,628.203247 
	C789.504150,628.067261 788.219543,629.584045 788.366455,632.969849 
	C788.531128,636.765442 788.286682,640.585144 789.484802,644.872375 
	C793.574402,644.872375 797.697998,644.911438 801.820374,644.859558 
	C804.903015,644.820801 806.204468,646.134216 806.391724,649.336792 
	C806.973206,659.280090 807.083740,659.273560 797.195923,659.280273 
	C789.338257,659.285583 789.306702,659.283691 788.800232,667.347412 
	C788.675781,669.327576 788.893982,671.326904 788.842712,673.314514 
	C788.755371,676.697876 790.281311,678.087524 793.703186,677.931580 
	C798.024963,677.734558 802.362305,677.903809 806.691895,677.843750 
	C809.823608,677.800293 811.071533,679.283142 811.270325,682.387756 
	C811.962402,693.200256 811.925110,693.308838 801.193176,693.286926 
	C793.864746,693.271912 786.536377,693.278198 779.207947,693.276855 
	C772.684265,693.275635 772.667175,693.276733 772.664734,686.528992 
	C772.657104,665.210022 772.662109,643.890991 772.664917,622.572021 
	C772.666138,613.643188 772.669250,613.643188 782.043823,613.675415 
z"/>
<path fill="#000000" opacity="1.000000" stroke="none" 
	d="
M136.127228,656.826904 
	C136.278091,661.237915 134.140640,662.300964 130.486694,662.359497 
	C117.233658,662.571655 117.235008,662.661560 117.220695,676.190857 
	C117.216293,680.350281 117.191780,684.509888 117.215347,688.669128 
	C117.232803,691.749268 115.769173,693.070312 112.669853,693.294983 
	C100.919037,694.146912 100.921135,694.211670 100.919357,682.686768 
	C100.916122,661.722595 101.026070,640.757385 100.832031,619.795044 
	C100.787720,615.007812 102.344460,613.409485 107.159958,613.575073 
	C116.132080,613.883606 125.129242,613.744385 134.106842,613.480469 
	C137.882278,613.369446 139.307419,614.861328 139.129547,618.406982 
	C139.087921,619.236450 139.141190,620.070374 139.138641,620.902222 
	C139.116913,627.976990 138.869980,628.229919 131.868423,628.248413 
	C128.374420,628.257690 124.876755,628.346497 121.387497,628.217041 
	C118.433586,628.107544 117.114426,629.255798 117.226074,632.294373 
	C117.366516,636.116089 117.370811,639.950256 117.237839,643.772217 
	C117.130737,646.850586 118.560997,647.952881 121.456573,647.810364 
	C123.447990,647.712280 125.448685,647.800293 127.445221,647.808899 
	C136.090836,647.846252 136.149734,647.904785 136.127228,656.826904 
z"/>
<path fill="#000000" opacity="1.000000" stroke="none" 
	d="
M468.066986,671.999573 
	C468.058838,677.822754 468.023376,683.146179 468.046753,688.469360 
	C468.061218,691.760376 466.562347,693.158386 463.200623,693.328247 
	C451.732513,693.907654 451.721100,693.993591 451.706940,682.333191 
	C451.687164,666.029785 451.598114,649.725525 451.758942,633.423706 
	C451.797150,629.551270 450.592041,627.763062 446.638062,628.265137 
	C446.474457,628.285950 446.305695,628.267822 446.139343,628.265747 
	C436.445770,628.146606 436.562042,628.149109 436.772644,618.617371 
	C436.851471,615.050415 438.059326,613.543640 441.762634,613.581360 
	C453.738708,613.703125 465.717834,613.666382 477.694092,613.535034 
	C480.858917,613.500305 482.404755,614.608521 482.260101,617.840088 
	C482.200623,619.168396 482.129486,620.513550 482.265778,621.830078 
	C482.746552,626.474304 480.956696,628.457031 476.061310,628.347412 
	C468.095490,628.169067 468.077972,628.400818 468.069397,636.565735 
	C468.057159,648.210388 468.065155,659.855103 468.066986,671.999573 
z"/>
<path fill="#000000" opacity="1.000000" stroke="none" 
	d="
M263.428528,652.967285 
	C263.403198,665.324646 263.353882,677.279968 263.338104,689.235291 
	C263.334564,691.896667 262.119598,693.026550 259.430176,693.287842 
	C248.087936,694.389893 247.699478,694.087646 247.693039,682.670410 
	C247.683914,666.511536 247.520660,650.350830 247.730042,634.194885 
	C247.788055,629.718140 246.604370,627.516907 241.878357,628.247314 
	C241.552856,628.297607 241.213028,628.256409 240.879852,628.255554 
	C233.575974,628.237122 230.228989,622.843506 233.050507,615.773621 
	C233.850281,613.769592 235.430573,613.700989 237.123962,613.696045 
	C249.450806,613.660156 261.777893,613.666199 274.104370,613.578247 
	C276.579071,613.560608 277.877106,614.539673 277.976868,617.018738 
	C278.017059,618.017090 278.021027,619.017029 278.031464,620.016357 
	C278.116241,628.152954 278.058807,628.212280 270.158081,628.253174 
	C263.326172,628.288513 263.462250,628.291809 263.296722,635.118530 
	C263.155548,640.940247 264.279938,646.746033 263.428528,652.967285 
z"/>
<path fill="#000000" opacity="1.000000" stroke="none" 
	d="
M263.993317,433.674469 
	C269.190491,434.001709 274.006012,433.023285 280.109772,434.885071 
	C274.583191,438.874481 272.193054,444.791626 264.916260,444.324677 
	C247.336929,443.196594 229.740585,442.310150 212.143448,441.490753 
	C200.514236,440.949219 188.870529,440.724884 177.236404,440.277924 
	C175.213501,440.200226 172.841858,441.076324 171.066177,438.392578 
	C173.841232,435.775116 177.446365,435.967255 180.668167,435.814423 
	C208.259872,434.505829 235.860733,433.401428 263.993317,433.674469 
z"/>
<path fill="#000000" opacity="1.000000" stroke="none" 
	d="
M637.688110,751.965027 
	C637.681152,745.819397 637.647156,740.168457 637.681274,734.518005 
	C637.692993,732.580566 637.254395,730.278015 639.915527,729.610352 
	C642.613037,728.933533 645.217407,728.945251 646.998413,731.656006 
	C649.802429,735.924072 652.620789,740.182800 655.714417,744.871948 
	C659.050659,741.231018 657.467773,737.463562 657.669128,734.090637 
	C657.828857,731.414490 658.387268,729.565491 661.396057,729.262817 
	C664.331055,728.967590 666.306213,729.680847 666.291687,733.143250 
	C666.254761,741.951538 666.281311,750.760071 666.287842,759.568542 
	C666.289124,761.334900 665.984680,762.928345 663.985779,763.493286 
	C661.373169,764.231750 658.937866,763.897766 657.263733,761.615173 
	C655.006775,758.537903 652.963867,755.304138 650.813416,752.148254 
	C649.917175,750.833069 649.358582,749.114075 647.095642,748.949402 
	C645.568787,751.958862 646.345764,755.149170 646.312500,758.195374 
	C646.277222,761.426453 645.642212,763.897705 641.783936,763.856201 
	C638.165527,763.817322 637.495239,761.477051 637.667358,758.441895 
	C637.780151,756.453918 637.688049,754.454346 637.688110,751.965027 
z"/>
<path fill="#000000" opacity="1.000000" stroke="none" 
	d="
M748.563171,763.940186 
	C734.205811,761.284851 733.570740,743.563843 738.461243,735.436523 
	C742.106873,729.377991 748.007751,727.957275 754.538086,728.922546 
	C760.711487,729.835144 764.330444,733.584961 766.482300,739.537048 
	C770.546326,750.778259 763.883545,765.998169 748.563171,763.940186 
M751.513916,756.564087 
	C758.566223,754.307617 761.286133,744.044678 756.218811,738.811340 
	C753.687134,736.196655 748.818054,736.498779 746.530701,739.412476 
	C742.348572,744.739685 744.559143,753.600708 751.513916,756.564087 
z"/>
<path fill="#000000" opacity="1.000000" stroke="none" 
	d="
M429.761108,746.939697 
	C430.218170,734.858459 435.626801,728.774536 445.541504,728.741577 
	C455.071289,728.709900 461.093353,734.668152 461.638367,745.789490 
	C461.934937,751.840820 460.447601,757.855896 454.687256,761.434570 
	C449.201874,764.842407 443.376312,765.260925 437.624847,762.061340 
	C431.925385,758.890564 430.161377,753.468323 429.761108,746.939697 
M446.180969,756.556458 
	C452.718445,753.682800 455.086731,744.849060 450.838318,739.184387 
	C448.641907,736.255737 443.821106,735.954407 441.160034,738.579529 
	C436.471802,743.204346 439.177795,754.585388 446.180969,756.556458 
z"/>
<path fill="#000000" opacity="1.000000" stroke="none" 
	d="
M703.130371,740.306885 
	C705.504150,751.861206 701.693604,760.272034 693.017334,763.216309 
	C683.869690,766.320496 675.040100,761.311218 672.667297,751.925537 
	C671.286926,746.465576 672.024780,741.272949 674.371826,736.416565 
	C677.334839,730.286072 682.803345,728.255798 689.320984,728.783386 
	C696.393677,729.355835 700.927856,733.166931 703.130371,740.306885 
M694.494141,742.347351 
	C693.609558,739.484985 692.293030,737.115845 688.781067,737.068481 
	C685.947327,737.030212 683.366516,737.602661 682.188110,740.499695 
	C680.410339,744.870117 680.558594,749.339233 682.740967,753.483032 
	C683.852295,755.593140 686.056396,756.853882 688.602722,756.539856 
	C691.052307,756.237854 692.806091,754.841187 693.837952,752.479309 
	C695.166992,749.437012 694.812317,746.302002 694.494141,742.347351 
z"/>
<path fill="#000000" opacity="1.000000" stroke="none" 
	d="
M777.820679,731.630066 
	C785.603882,727.148682 794.327271,727.914124 799.151184,733.367920 
	C800.641357,735.052734 802.900574,737.227600 801.156433,739.399292 
	C799.499207,741.462769 796.558044,740.620850 794.185974,739.766785 
	C793.447937,739.500916 792.924500,738.692749 792.224426,738.259277 
	C787.234619,735.169434 782.176758,737.311401 780.784912,743.009155 
	C780.005737,746.198608 780.196838,749.313416 781.430359,752.300537 
	C783.455750,757.205261 788.621216,757.800903 792.353394,753.642578 
	C792.238159,753.345947 792.193481,752.870483 791.986511,752.784119 
	C789.416382,751.711853 786.245850,751.091064 787.260986,747.133789 
	C788.177979,743.558777 791.254700,744.813904 793.507080,744.767212 
	C802.783447,744.575012 804.541260,747.171875 801.089966,755.998901 
	C798.857910,761.707336 793.914490,763.587646 788.360535,764.048523 
	C782.002930,764.576233 775.951111,761.191528 773.564392,755.885193 
	C770.548584,749.179932 770.823730,736.781921 777.820679,731.630066 
z"/>
<path fill="#000000" opacity="1.000000" stroke="none" 
	d="
M606.172241,763.904480 
	C603.327637,763.299866 602.731628,761.571289 602.735840,759.353821 
	C602.751892,750.862488 602.769653,742.370789 602.692993,733.880005 
	C602.665894,730.873352 603.743042,729.075562 606.961426,729.053101 
	C610.201599,729.030396 611.360107,730.840820 611.234985,733.843689 
	C611.179565,735.173157 611.314819,736.512878 611.221619,737.837952 
	C611.004395,740.925781 611.682495,742.986816 615.457458,742.975159 
	C619.035217,742.964050 621.276550,741.778625 621.462463,737.968262 
	C621.543213,736.312622 621.457642,734.649231 621.457520,732.989319 
	C621.457336,730.240234 623.016724,729.124268 625.577759,729.141663 
	C628.012878,729.158203 629.988831,730.014465 630.012146,732.771912 
	C630.089355,741.925049 630.142700,751.081604 629.951538,760.231628 
	C629.892151,763.070374 627.659119,764.136719 624.998169,763.927063 
	C622.411865,763.723389 621.143799,762.287903 621.352417,759.595703 
	C621.467529,758.109619 621.465454,756.604309 621.382324,755.115112 
	C621.171021,751.330078 619.064941,750.082458 615.389893,750.242432 
	C611.594360,750.407654 611.366089,752.636536 611.179504,755.590820 
	C610.966187,758.967957 613.118286,763.945557 606.172241,763.904480 
z"/>
<path fill="#000000" opacity="1.000000" stroke="none" 
	d="
M308.393524,763.994507 
	C299.715240,761.511414 297.024841,758.110596 296.892548,749.664490 
	C296.809204,744.342834 296.974243,739.016357 296.837952,733.696899 
	C296.753235,730.390930 298.444092,729.271545 301.399902,729.215515 
	C304.502472,729.156677 305.352814,730.920105 305.315430,733.684387 
	C305.243408,739.006348 305.319366,744.330200 305.299988,749.653137 
	C305.287354,753.125854 306.671783,755.655701 310.357147,755.767822 
	C314.336487,755.888855 315.846283,753.314209 315.837250,749.595581 
	C315.824310,744.272827 315.868347,738.949951 315.861053,733.627136 
	C315.857391,730.942017 316.711914,729.064941 319.803741,729.053467 
	C322.836395,729.042175 324.407043,730.310059 324.328796,733.557373 
	C324.208618,738.544800 324.317200,743.537354 324.298248,748.527649 
	C324.257446,759.275024 319.680389,763.852966 308.393524,763.994507 
z"/>
<path fill="#000000" opacity="1.000000" stroke="none" 
	d="
M549.331055,756.135254 
	C552.034485,756.182129 554.362793,756.102600 556.680725,756.223083 
	C559.041138,756.345825 560.264709,757.600220 560.184814,760.098328 
	C560.106262,762.555420 558.856262,763.833069 556.505615,763.874817 
	C551.691956,763.960266 546.873291,764.005798 542.061768,763.877380 
	C539.306885,763.803894 537.888489,762.197876 537.903503,759.350647 
	C537.948303,750.881165 537.948242,742.411499 537.966858,733.941895 
	C537.972961,731.174194 539.104126,729.630249 542.127563,729.615295 
	C546.771240,729.592407 551.413269,729.332031 556.057190,729.224609 
	C558.312195,729.172546 559.937683,729.963318 560.107910,732.552246 
	C560.278320,735.142090 559.241089,736.749878 556.563354,736.950195 
	C554.579285,737.098633 552.581787,737.062256 550.591003,737.128967 
	C548.763306,737.190247 547.254639,737.651978 547.336182,739.935242 
	C547.414795,742.137207 548.877747,742.646118 550.719116,742.689453 
	C552.213257,742.724548 553.718201,742.663513 555.198730,742.825012 
	C557.514465,743.077576 558.079102,744.750427 558.079712,746.760437 
	C558.080383,748.762512 557.004028,749.852722 555.075806,750.032532 
	C553.757751,750.155396 552.419861,750.048035 551.094421,750.114746 
	C549.617493,750.188965 547.889465,750.050598 547.448853,751.954285 
	C547.078430,753.555176 546.754822,755.337463 549.331055,756.135254 
z"/>
<path fill="#000000" opacity="1.000000" stroke="none" 
	d="
M235.771210,739.774597 
	C236.780762,736.899902 237.550690,734.350098 238.582230,731.911011 
	C239.697693,729.273560 242.244461,729.368042 244.561111,729.247803 
	C246.917770,729.125366 248.181961,730.498901 248.905914,732.599121 
	C251.822891,741.061340 254.796722,749.504028 257.683105,757.976624 
	C258.368408,759.988342 260.447021,762.527710 256.727173,763.658386 
	C253.665207,764.589050 251.006592,763.744873 249.982132,760.357178 
	C249.099365,757.437988 247.534119,755.962891 244.285492,755.989441 
	C240.727661,756.018616 237.821838,756.045471 236.944092,760.644165 
	C236.338760,763.815674 233.363342,764.521240 230.548279,763.521912 
	C227.636414,762.488159 228.650345,759.894470 229.287994,757.971802 
	C231.273193,751.986023 233.508514,746.083252 235.771210,739.774597 
M243.390564,748.513184 
	C246.656570,747.027588 244.623001,745.439392 243.636536,743.279297 
	C242.068344,745.215393 240.203873,746.495422 243.390564,748.513184 
z"/>
<path fill="#000000" opacity="1.000000" stroke="none" 
	d="
M591.180847,761.374268 
	C582.384277,765.647705 574.838074,764.634399 570.476257,758.874939 
	C564.825195,751.413147 564.965332,739.802368 570.783325,733.434814 
	C576.880249,726.762024 588.574951,727.183411 594.171875,734.359375 
	C595.583252,736.168945 597.453918,738.575256 595.219604,740.507080 
	C593.351807,742.122009 590.528442,741.871460 588.266785,740.246460 
	C582.697388,736.245178 578.863098,736.226318 576.474182,740.210815 
	C573.649719,744.921753 575.515259,753.457458 579.829407,755.907166 
	C581.878296,757.070557 583.711853,756.583984 585.436768,755.402954 
	C586.379822,754.757385 587.108887,753.800354 587.939026,752.988525 
	C590.224365,750.753662 593.065613,750.773865 595.193054,752.515747 
	C597.432617,754.349487 595.257874,756.466125 594.176025,758.207642 
	C593.488403,759.314514 592.390747,760.166748 591.180847,761.374268 
z"/>
<path fill="#000000" opacity="1.000000" stroke="none" 
	d="
M281.036743,763.522705 
	C273.930054,765.018127 268.360687,763.140137 264.526672,757.395447 
	C259.720612,750.194275 259.677673,742.709412 264.181366,735.314575 
	C267.531616,729.813538 272.815033,728.399475 278.836670,728.847717 
	C282.871338,729.148132 286.290649,730.912720 288.675934,734.089478 
	C290.031158,735.894409 292.651947,738.375122 290.011261,740.531250 
	C287.994446,742.178040 284.956879,741.943298 282.746582,739.711121 
	C282.278503,739.238403 281.880096,738.674072 281.350037,738.288940 
	C277.416443,735.430054 271.782837,737.202271 270.490387,741.889465 
	C269.498077,745.488159 269.652283,749.202515 271.292847,752.632141 
	C273.354584,756.942200 277.606689,757.876587 281.077545,754.646423 
	C283.915405,752.005249 287.492676,748.816345 290.171051,752.807251 
	C292.368103,756.081055 288.392517,759.282776 285.456268,761.469971 
	C284.282318,762.344360 282.781372,762.779785 281.036743,763.522705 
z"/>
<path fill="#000000" opacity="1.000000" stroke="none" 
	d="
M477.239319,739.200317 
	C477.015076,742.008911 478.435608,742.782288 480.558655,742.844849 
	C482.217041,742.893738 483.885406,742.878052 485.529877,743.063599 
	C487.863159,743.326843 489.091156,744.689209 488.976807,747.095947 
	C488.868713,749.370056 487.515259,750.090820 485.380798,750.312439 
	C477.208527,751.161011 477.135529,751.209595 476.404449,759.788452 
	C476.179199,762.431763 475.132172,763.812012 472.467865,763.807922 
	C469.932678,763.804016 468.273499,762.668213 468.242615,759.988525 
	C468.139252,751.024048 468.098389,742.058655 468.068878,733.093506 
	C468.059906,730.366577 469.752411,729.237000 472.227020,729.190247 
	C476.873810,729.102295 481.523743,729.067566 486.170532,729.135254 
	C488.629883,729.171021 490.295288,730.229126 490.218445,733.058533 
	C490.145264,735.751465 488.626190,736.741150 486.150543,737.131958 
	C483.196228,737.598389 479.789032,735.806396 477.239319,739.200317 
z"/>
<path fill="#000000" opacity="1.000000" stroke="none" 
	d="
M222.912811,456.720886 
	C233.677414,455.970337 243.971008,455.380249 254.286102,455.747955 
	C256.232086,455.817352 258.955383,454.681000 259.710785,457.752838 
	C260.242523,459.915039 255.998108,465.191467 253.774246,465.216675 
	C248.950348,465.271454 244.113327,465.337646 239.301346,465.059357 
	C224.392990,464.197052 209.493256,463.184113 194.591904,462.203674 
	C193.008408,462.099457 191.183929,462.281586 190.450943,459.309113 
	C201.194855,458.102173 211.780182,457.093018 222.912811,456.720886 
z"/>
<path fill="#000000" opacity="1.000000" stroke="none" 
	d="
M210.054199,763.835571 
	C207.008331,763.631775 205.797745,762.181702 205.800827,759.579712 
	C205.811096,750.922302 205.821793,742.264832 205.781570,733.607605 
	C205.766403,730.342773 207.523376,729.218872 210.521866,729.283936 
	C215.007935,729.381348 219.495529,729.447388 223.982483,729.447815 
	C226.019501,729.447998 227.687317,729.862427 227.963821,732.223633 
	C228.238251,734.566956 227.101181,736.207520 224.871475,736.650085 
	C222.773926,737.066467 220.579651,737.009033 218.426102,737.126160 
	C216.391113,737.236938 214.216537,737.129089 214.309845,740.126343 
	C214.402298,743.096069 216.646362,742.868042 218.627457,742.979675 
	C220.120834,743.063904 221.637131,742.954834 223.108414,743.169922 
	C225.530228,743.523926 226.366165,745.153137 226.224884,747.478577 
	C226.091415,749.675110 224.683853,750.205750 222.834564,750.247742 
	C222.501709,750.255249 222.168045,750.290161 221.836349,750.275696 
	C213.959732,749.932983 213.985291,750.601318 214.116028,758.503906 
	C214.159546,761.135498 214.042343,763.669800 210.054199,763.835571 
z"/>
<path fill="#000000" opacity="1.000000" stroke="none" 
	d="
M421.066223,648.987244 
	C426.552979,648.991699 431.549042,649.013306 436.544983,648.994995 
	C439.611176,648.983765 441.226105,650.371338 441.112122,653.533447 
	C441.100128,653.865845 441.115936,654.199646 441.126862,654.532471 
	C441.435638,663.947876 441.435883,663.958557 432.109680,663.975098 
	C426.780548,663.984558 421.450378,663.884949 416.122620,663.964905 
	C412.993591,664.011841 411.404022,662.775452 411.675812,659.528198 
	C411.717316,659.032471 411.674530,658.529541 411.668488,658.029968 
	C411.559937,649.021179 411.559875,649.021179 421.066223,648.987244 
z"/>
<path fill="#000000" opacity="1.000000" stroke="none" 
	d="
M384.465149,735.455688 
	C383.643860,733.651367 382.256226,732.464722 382.411194,730.654053 
	C387.164337,728.072571 389.585358,728.659912 392.186096,733.009583 
	C392.696747,733.863647 393.123535,734.776062 393.702789,735.579468 
	C396.342224,739.240295 397.778839,739.216431 400.234589,735.426331 
	C402.099274,732.548462 403.344940,728.983276 407.737061,729.140930 
	C409.083984,729.189209 410.469757,729.288635 411.335663,730.460999 
	C412.357056,731.843872 411.290436,732.937134 410.595428,734.040405 
	C409.270142,736.144104 408.054474,738.328430 406.590363,740.330872 
	C402.770142,745.555969 400.199677,751.068665 401.093262,757.822998 
	C401.480103,760.747437 401.071381,763.727539 397.018951,763.801758 
	C393.001129,763.875305 392.320007,761.076843 392.807190,758.041382 
	C394.252777,749.033997 388.806458,742.660095 384.465149,735.455688 
z"/>
<path fill="#000000" opacity="1.000000" stroke="none" 
	d="
M807.967529,729.550842 
	C811.808228,728.512451 813.903870,730.118958 815.702271,732.986511 
	C816.975891,735.017212 817.524292,737.711365 820.151245,738.832703 
	C822.521179,737.576355 823.535278,735.271240 824.720093,733.113281 
	C825.610107,731.492126 826.492065,729.900757 828.499268,729.402588 
	C830.486816,728.909241 832.638428,728.460510 834.205078,729.962219 
	C836.087585,731.766724 833.936829,733.283142 833.209961,734.777283 
	C832.416016,736.409363 831.379639,737.945129 830.298706,739.412292 
	C826.160767,745.029175 823.139221,750.936584 824.221069,758.276611 
	C824.645569,761.156982 823.988098,763.672546 820.248840,763.792969 
	C816.231323,763.922302 815.315674,761.325134 815.870117,758.216919 
	C817.591980,748.565796 811.386902,741.979675 807.172241,734.582947 
	C806.248962,732.962463 803.737976,730.921509 807.967529,729.550842 
z"/>
<path fill="#000000" opacity="1.000000" stroke="none" 
	d="
M521.704590,729.446045 
	C524.618713,729.350464 527.111267,729.166504 529.588074,729.292786 
	C531.573792,729.394043 533.066040,730.324280 533.153076,732.656799 
	C533.232605,734.790955 532.338501,736.487671 530.257507,736.658630 
	C525.112305,737.081360 524.824280,740.522827 524.883911,744.423828 
	C524.957581,749.245056 524.967407,754.068115 524.936890,758.889893 
	C524.919189,761.686890 524.019836,763.874207 520.676941,763.779297 
	C517.360474,763.685120 516.660217,761.566895 516.708496,758.697693 
	C516.798096,753.377747 516.698669,748.054932 516.739014,742.733765 
	C516.763000,739.568054 516.113281,737.133911 512.197449,737.044434 
	C509.655029,736.986328 508.237732,735.572632 508.312256,732.885010 
	C508.396423,729.847168 510.476440,729.551758 512.801147,729.543701 
	C515.626221,729.533936 518.451233,729.509583 521.704590,729.446045 
z"/>
<path fill="#000000" opacity="1.000000" stroke="none" 
	d="
M721.022583,764.040039 
	C709.731018,763.918152 709.725891,763.918152 709.724854,753.015808 
	C709.724243,746.700012 709.813232,740.383179 709.724304,734.068787 
	C709.678101,730.789978 710.954712,729.036194 714.362244,729.071289 
	C717.777466,729.106445 718.367615,731.223877 718.326782,734.071838 
	C718.245789,739.721619 718.488281,745.381042 718.249207,751.021790 
	C718.092102,754.728271 719.559814,756.186035 723.137634,756.076477 
	C725.457214,756.005493 727.790955,756.118347 730.107056,756.296265 
	C732.001648,756.441711 733.135498,757.497437 733.203491,759.515625 
	C733.272400,761.563660 732.654968,763.312744 730.435791,763.573120 
	C727.479797,763.919983 724.481567,763.906982 721.022583,764.040039 
z"/>
<path fill="#000000" opacity="1.000000" stroke="none" 
	d="
M370.263916,745.298706 
	C370.284332,750.246521 370.272308,754.732788 370.342072,759.217834 
	C370.384399,761.937805 369.481232,763.787292 366.452606,763.839172 
	C363.315002,763.892944 361.995514,762.245422 362.028015,759.174988 
	C362.087830,753.527100 361.995117,747.877686 362.052338,742.229736 
	C362.082886,739.213257 361.445007,737.058533 357.751312,736.992126 
	C354.954803,736.941833 353.559937,735.269592 353.886505,732.369873 
	C354.196198,729.619934 356.189087,729.508728 358.287994,729.521301 
	C363.765320,729.554077 369.242859,729.563354 374.720123,729.604187 
	C376.877045,729.620300 378.793640,730.131714 379.023712,732.719360 
	C379.239960,735.151855 377.695526,736.634033 375.577698,736.871460 
	C370.456512,737.445496 370.213501,740.974731 370.263916,745.298706 
z"/>
<path fill="#000000" opacity="1.000000" stroke="none" 
	d="
M332.147400,730.740417 
	C338.076477,728.029846 340.035248,729.233765 340.115265,735.207336 
	C340.184296,740.359985 340.308380,745.517456 340.162109,750.665710 
	C340.036285,755.092834 342.222748,756.549622 346.305389,756.379333 
	C349.591431,756.242249 354.396332,754.632202 354.590240,759.798096 
	C354.799683,765.377808 349.612457,763.986328 346.269806,763.965149 
	C329.092987,763.856140 331.923126,766.083313 331.706909,749.560974 
	C331.626556,743.418945 331.858856,737.272766 332.147400,730.740417 
z"/>
<path fill="#000000" opacity="1.000000" stroke="none" 
	d="
M329.594208,471.932770 
	C338.757629,475.080719 342.359589,481.709473 342.189758,490.505768 
	C342.032104,498.670715 339.143005,505.778198 330.944275,508.815918 
	C319.532196,513.044250 309.800964,509.521027 305.455170,495.924835 
	C302.243530,485.876953 308.763916,474.305389 318.944794,471.696411 
	C322.448059,470.798645 325.795624,470.942169 329.594208,471.932770 
z"/>
<path fill="#000000" opacity="1.000000" stroke="none" 
	d="
M754.440674,474.222198 
	C765.889282,466.214996 779.132019,474.076965 783.181580,482.239655 
	C788.262756,492.481903 783.402893,505.678192 772.410400,510.805725 
	C762.897400,515.243103 750.803833,510.278564 746.170898,500.033966 
	C742.259460,491.384827 745.310547,481.573334 754.440674,474.222198 
z"/>
</svg>